<svg width="36" height="32" viewBox="0 0 36 32" fill="none" xmlns="http://www.w3.org/2000/svg">
   <path
      d="M14.9245 16.1165C14.9245 21.2066 14.9245 26.306 14.9245 31.3961C14.9245 31.8941 14.7585 32.0508 14.2513 31.9863C9.65916 31.3869 5.87845 29.3675 3.09363 25.6052C0.908194 22.6544 -0.133804 19.3163 0.0137357 15.6555C0.152055 12.3081 1.24938 9.28357 3.30572 6.6094C5.76779 3.40963 8.94913 1.34406 12.8497 0.357391C13.32 0.237514 13.8087 0.172967 14.2975 0.108419C14.7401 0.0530911 14.9245 0.265178 14.9245 0.763125C14.9337 5.88092 14.9337 10.9987 14.9245 16.1165C14.9337 16.1165 14.9337 16.1165 14.9245 16.1165Z"
      fill="black" />
   <path
      d="M14.9245 16.1165C14.9245 21.2066 14.9245 26.306 14.9245 31.3961C14.9245 31.8941 14.7585 32.0508 14.2513 31.9863C9.65916 31.3869 5.87845 29.3675 3.09363 25.6052C0.908194 22.6544 -0.133804 19.3163 0.0137357 15.6555C0.152055 12.3081 1.24938 9.28357 3.30572 6.6094C5.76779 3.40963 8.94913 1.34406 12.8497 0.357391C13.32 0.237514 13.8087 0.172967 14.2975 0.108419C14.7401 0.0530911 14.9245 0.265178 14.9245 0.763125C14.9337 5.88092 14.9337 10.9987 14.9245 16.1165C14.9337 16.1165 14.9337 16.1165 14.9245 16.1165Z"
      fill="url(#paint0_linear_604_1359)" />
   <path
      d="M22.6796 11.4137C22.6796 11.93 22.6796 12.4464 22.6796 12.9536C22.6703 13.4884 22.3384 13.8112 21.8035 13.8112C20.8353 13.8112 19.8671 13.8112 18.8988 13.8112C18.3456 13.8112 18.0044 13.5345 17.9859 12.9813C17.9583 11.9116 17.9675 10.8512 17.9952 9.7815C18.0044 9.28355 18.364 8.97925 18.8527 8.97925C19.8579 8.97925 20.863 8.97925 21.8681 8.98847C22.3476 8.98847 22.6335 9.27433 22.6427 9.76305C22.6519 10.3163 22.6427 10.8696 22.6427 11.4229C22.6703 11.4137 22.6796 11.4137 22.6796 11.4137Z"
      fill="url(#paint1_linear_604_1359)" />
   <path
      d="M22.6984 20.4506C22.6984 20.967 22.6984 21.4834 22.6984 21.9905C22.6984 22.4977 22.3665 22.8481 21.8593 22.8573C20.845 22.8666 19.8214 22.8666 18.8071 22.8573C18.3552 22.8573 18.0048 22.5622 17.9956 22.092C17.9679 21.0223 17.9679 19.9619 17.9956 18.8922C18.014 18.3481 18.3644 18.0531 18.9085 18.0531C19.8583 18.0438 20.8173 18.0438 21.7671 18.0531C22.3204 18.0531 22.6339 18.3666 22.6431 18.9106C22.6523 19.427 22.6431 19.9434 22.6431 20.4506C22.6708 20.4506 22.6892 20.4506 22.6984 20.4506Z"
      fill="url(#paint2_linear_604_1359)" />
   <path
      d="M20.4112 27.1729C20.8999 27.1729 21.3886 27.1729 21.8774 27.1729C22.3292 27.1729 22.6335 27.431 22.6427 27.8737C22.6612 28.9526 22.6704 30.0314 22.652 31.1103C22.6427 31.6083 22.3108 31.9218 21.8036 31.931C20.8354 31.9402 19.8671 31.9402 18.8989 31.931C18.3456 31.9218 17.9952 31.5898 17.986 31.0366C17.9676 30.0314 17.9676 29.0263 17.986 28.0212C17.9952 27.514 18.3548 27.1913 18.862 27.1821C19.3784 27.1821 19.8948 27.1821 20.4112 27.1729C20.4112 27.1821 20.4112 27.1821 20.4112 27.1729Z"
      fill="url(#paint3_linear_604_1359)" />
   <path
      d="M27.9723 27.4309C27.4836 27.4309 26.9949 27.4402 26.5061 27.4309C25.9529 27.4217 25.6209 27.0805 25.6117 26.5273C25.6025 25.5683 25.5932 24.6185 25.6025 23.6595C25.6117 23.0693 25.9621 22.7373 26.5522 22.7281C27.5113 22.7189 28.461 22.7189 29.42 22.7281C29.9272 22.7281 30.2684 22.9863 30.2776 23.4843C30.3145 24.5631 30.3145 25.642 30.2868 26.7209C30.2776 27.1174 29.9364 27.3848 29.5123 27.4033C28.9959 27.4217 28.4795 27.4033 27.9631 27.4033C27.9723 27.4125 27.9723 27.4217 27.9723 27.4309Z"
      fill="url(#paint4_linear_604_1359)" />
   <path
      d="M20.3652 4.69131C19.8672 4.69131 19.3601 4.70053 18.8621 4.69131C18.3457 4.68209 18.0138 4.35935 18.0045 3.84296C17.9861 2.84706 17.9861 1.86039 17.9953 0.864491C18.0045 0.33888 18.3457 0.00691594 18.8898 0.00691594C19.8672 -0.00230531 20.8447 -0.00230531 21.8314 0.00691594C22.3754 0.00691594 22.6613 0.292775 22.6705 0.846051C22.6889 1.86039 22.6889 2.88395 22.6982 3.89828C22.6982 4.36857 22.3754 4.69131 21.8867 4.70053C21.3703 4.69131 20.8631 4.69131 20.3652 4.69131Z"
      fill="url(#paint5_linear_604_1359)" />
   <path
      d="M30.287 16.0058C30.287 16.513 30.2962 17.0109 30.287 17.5181C30.2777 18.016 29.9827 18.3203 29.4847 18.3203C28.4796 18.3388 27.4745 18.3388 26.4694 18.3388C25.9622 18.3388 25.6302 18.0345 25.621 17.5273C25.6026 16.513 25.6026 15.4894 25.621 14.4751C25.6302 13.9955 25.9345 13.6912 26.4048 13.682C27.456 13.6636 28.5165 13.6636 29.5769 13.6728C29.955 13.6728 30.2501 14.0048 30.2685 14.4289C30.287 14.9546 30.2685 15.4894 30.2685 16.015C30.2777 16.0058 30.287 16.0058 30.287 16.0058Z"
      fill="url(#paint6_linear_604_1359)" />
   <path
      d="M33.5519 4.69114C33.0724 4.69114 32.5929 4.70037 32.1226 4.69114C31.6155 4.68192 31.2743 4.38685 31.2651 3.8889C31.2466 2.87456 31.2466 1.851 31.2651 0.836662C31.2743 0.338714 31.6155 0.015971 32.1226 0.015971C33.1277 0.0067497 34.1329 -0.00247211 35.138 0.00674914C35.5714 0.00674914 35.8941 0.347935 35.9033 0.82744C35.9218 1.86944 35.9218 2.91144 35.9126 3.96267C35.9126 4.39607 35.6083 4.69115 35.1749 4.70959C34.6308 4.70959 34.0868 4.70037 33.5519 4.69114C33.5519 4.70037 33.5519 4.70037 33.5519 4.69114Z"
      fill="url(#paint7_linear_604_1359)" />
   <path
      d="M30.278 6.98753C30.278 7.4947 30.2872 7.99265 30.278 8.49981C30.2688 8.95166 30.0106 9.22829 29.5495 9.23751C28.5075 9.25596 27.4655 9.26518 26.4143 9.25596C25.944 9.25596 25.6213 8.94243 25.612 8.48137C25.5936 7.46703 25.5844 6.44347 25.6028 5.42914C25.612 4.93119 25.9532 4.60844 26.4512 4.59922C27.4286 4.59 28.4153 4.58078 29.3928 4.59C29.9921 4.59922 30.2596 4.88508 30.278 5.47524C30.2872 5.98241 30.278 6.48036 30.278 6.98753Z"
      fill="url(#paint8_linear_604_1359)" />
   <path
      d="M14.9245 16.1165C14.9245 21.2066 14.9245 26.306 14.9245 31.3961C14.9245 31.8941 14.7585 32.0508 14.2513 31.9863C9.65916 31.3869 5.87845 29.3675 3.09363 25.6052C0.908194 22.6544 -0.133804 19.3163 0.0137357 15.6555C0.152055 12.3081 1.24938 9.28357 3.30572 6.6094C5.76779 3.40963 8.94913 1.34406 12.8497 0.357391C13.32 0.237514 13.8087 0.172967 14.2975 0.108419C14.7401 0.0530911 14.9245 0.265178 14.9245 0.763125C14.9337 5.88092 14.9337 10.9987 14.9245 16.1165C14.9337 16.1165 14.9337 16.1165 14.9245 16.1165Z"
      fill="url(#paint9_linear_604_1359)" />
   <defs>
      <linearGradient id="paint0_linear_604_1359" x1="0.00425162" y1="16.046" x2="14.8571"
         y2="31.4285" gradientUnits="userSpaceOnUse">
         <stop stop-color="#CBEF02" />
         <stop offset="1" stop-color="#EFFF96" />
      </linearGradient>
      <linearGradient id="paint1_linear_604_1359" x1="17.9706" y1="11.3946" x2="19.6886"
         y2="15.1004" gradientUnits="userSpaceOnUse">
         <stop stop-color="#CBEF02" />
         <stop offset="1" stop-color="#EFFF96" />
      </linearGradient>
      <linearGradient id="paint2_linear_604_1359" x1="17.9762" y1="20.4546" x2="19.683" y2="24.1572"
         gradientUnits="userSpaceOnUse">
         <stop stop-color="#CBEF02" />
         <stop offset="1" stop-color="#EFFF96" />
      </linearGradient>
      <linearGradient id="paint3_linear_604_1359" x1="17.9735" y1="29.5548" x2="19.6573"
         y2="33.2216" gradientUnits="userSpaceOnUse">
         <stop stop-color="#CBEF02" />
         <stop offset="1" stop-color="#EFFF96" />
      </linearGradient>
      <linearGradient id="paint4_linear_604_1359" x1="25.6" y1="25.0775" x2="27.2497" y2="28.7233"
         gradientUnits="userSpaceOnUse">
         <stop stop-color="#CBEF02" />
         <stop offset="1" stop-color="#EFFF96" />
      </linearGradient>
      <linearGradient id="paint5_linear_604_1359" x1="17.9906" y1="2.34969" x2="19.6324"
         y2="5.98885" gradientUnits="userSpaceOnUse">
         <stop stop-color="#CBEF02" />
         <stop offset="1" stop-color="#EFFF96" />
      </linearGradient>
      <linearGradient id="paint6_linear_604_1359" x1="25.6085" y1="16.0022" x2="27.2395"
         y2="19.6202" gradientUnits="userSpaceOnUse">
         <stop stop-color="#CBEF02" />
         <stop offset="1" stop-color="#EFFF96" />
      </linearGradient>
      <linearGradient id="paint7_linear_604_1359" x1="31.2525" y1="2.35568" x2="32.9075"
         y2="5.98698" gradientUnits="userSpaceOnUse">
         <stop stop-color="#CBEF02" />
         <stop offset="1" stop-color="#EFFF96" />
      </linearGradient>
      <linearGradient id="paint8_linear_604_1359" x1="25.5941" y1="6.9223" x2="27.2247" y2="10.5424"
         gradientUnits="userSpaceOnUse">
         <stop stop-color="#CBEF02" />
         <stop offset="1" stop-color="#EFFF96" />
      </linearGradient>
      <linearGradient id="paint9_linear_604_1359" x1="0.00425162" y1="16.046" x2="14.8571"
         y2="31.4285" gradientUnits="userSpaceOnUse">
         <stop stop-color="#CBEF02" />
         <stop offset="1" stop-color="#EFFF96" />
      </linearGradient>
   </defs>
</svg>   